<svg xmlns="http://www.w3.org/2000/svg" width="430" height="430" fill="none" viewBox="0 0 430 430"><path fill="#f24c00" d="M191 404.631V361h-52v43.631c0 2.347 2.573 3.785 4.572 2.555L165 394l21.428 13.186c1.999 1.23 4.572-.208 4.572-2.555"/><path fill="#f24c00" d="M139 361v43.631c0 2.347 2.573 3.785 4.572 2.555L165 394v-33z" opacity=".5" style="mix-blend-mode:multiply"/><path fill="#4bb3fd" d="M93 58.667v273.771c0 7.951 3.243 15.066 8.37 20.192 5.231 5.231 12.345 8.37 20.296 8.37h212.793a3 3 0 0 0 3-3V58.667"/><path fill="#4bb3fd" d="M93 332.438V58.667h20v273.771c0 7.951 3.243 15.066 8.37 20.192 5.231 5.231 12.345 8.37 20.296 8.37h-20c-7.951 0-15.065-3.139-20.296-8.37-5.127-5.126-8.37-12.241-8.37-20.192" opacity=".5" style="mix-blend-mode:multiply"/><path fill="#ebe6ef" d="M121.666 87.333h215.793V33a3 3 0 0 0-3-3H121.666C105.869 30 93 42.868 93 58.667c0 15.797 12.869 28.666 28.666 28.666"/><path fill="#ebe6ef" d="M159.666 87.333h-38C105.869 87.333 93 74.464 93 58.667 93 42.868 105.869 30 121.666 30h38C143.869 30 131 42.868 131 58.667c0 15.797 12.869 28.666 28.666 28.666" opacity=".5" style="mix-blend-mode:multiply"/><path fill="#4bb3fd" fill-rule="evenodd" d="M337.459 87.333H121.666C105.869 87.333 93 74.464 93 58.667 93 42.868 105.869 30 121.666 30h212.793a3 3 0 0 1 3 3zm0-47.333H121.666C111.391 40 103 48.391 103 58.667c0 10.275 8.391 18.666 18.666 18.666h215.793z" clip-rule="evenodd"/><path fill="#4bb3fd" fill-rule="evenodd" d="M337.459 87.333H121.666C105.869 87.333 93 74.464 93 58.667 93 42.868 105.869 30 121.666 30h212.793a3 3 0 0 1 3 3zm0-47.333H121.666C111.391 40 103 48.391 103 58.667c0 10.275 8.391 18.666 18.666 18.666h215.793z" clip-rule="evenodd" opacity=".5" style="mix-blend-mode:multiply"/><path fill="#ebe6ef" d="M333.934 62.167h3.5v-7h-3.5zm-179.323-7a3.5 3.5 0 1 0 0 7zm179.323 0H154.611v7h179.323z" opacity=".5" style="mix-blend-mode:multiply"/><path stroke="#3a3347" stroke-linecap="round" stroke-linejoin="round" stroke-miterlimit="10" stroke-width="7" d="M285 270H145m114.136 35h-88.272"/><path fill="#f9c9c0" d="M145 143a3 3 0 0 1 3-3h134a3 3 0 0 1 3 3v44a3 3 0 0 1-3 3H148a3 3 0 0 1-3-3z"/><path fill="#f9c9c0" fill-rule="evenodd" d="M277 148H153v34h124zm-129-8a3 3 0 0 0-3 3v44a3 3 0 0 0 3 3h134a3 3 0 0 0 3-3v-44a3 3 0 0 0-3-3z" clip-rule="evenodd" opacity=".5" style="mix-blend-mode:multiply"/></svg>