<svg xmlns="http://www.w3.org/2000/svg" width="430" height="430" fill="none" viewBox="0 0 430 430"><path fill="#ebe6ef" d="M242.701 367c-14.5 4.7-30.1 7.2-46.2 7-32.2-.2-61.9-10.8-86.1-28.6-7.1-5.3-13.8-11.1-19.8-17.5-25.7-27.1-41.2-63.7-40.6-103.7.2-12.9 2-25.3 5.3-37.2 2-7.2 4.5-14.1 7.5-20.8 20.7-46.2 64.6-79.8 116.8-86 5.2-.6 10.4-1 15.8-1.1h2.1c15.8 0 31 2.5 45.2 7.1 2.6.8 2.8 4.5.3 5.6-45.2 20.1-78.5 62.3-86 112.9-1.1 7.2-1.6 14.5-1.6 21.9 0 22 4.8 42.8 13.4 61.6 15 32.5 41.4 58.7 74.2 73.2 2.5 1.1 2.3 4.8-.3 5.6"/><path fill="#ffc738" d="m298.8 196.1-24.9 11.3c-.6.3-1.2.8-1.5 1.4l-10 20.6-2.3 4.7c-1.1 2.3-4.3 2.3-5.4 0l-12.3-25.3c0-.1-.1-.2-.1-.2-.3-.4-.6-.8-1.1-1-.1 0-.1-.1-.2-.1l-24.9-11.3c-2.3-1-2.3-4.2-.2-5.4.1-.1.1-.1.2-.1l24.9-11.3c.6-.3 1.2-.8 1.5-1.4l12.3-25.3c1.1-2.3 4.3-2.3 5.4 0l12.3 25.3c.3.6.8 1.1 1.5 1.4l24.9 11.3c2.2 1 2.2 4.3-.1 5.4m38.7 120.1-15.7 7.1c-.6.3-1.2.8-1.5 1.4l-5.5 11.4-2.3 4.7c-1.1 2.3-4.3 2.3-5.4 0l-7.8-16.1v-.1c-.3-.5-.7-1-1.3-1.2-.1 0-.1-.1-.2-.1l-15.7-7.1c-2.3-1-2.3-4.2-.2-5.4.1 0 .1-.1.2-.1l15.7-7.1c.6-.3 1.2-.8 1.5-1.4l7.8-16.1c1.1-2.3 4.3-2.3 5.4 0l7.8 16.1c.3.6.8 1.1 1.5 1.4l15.7 7.1a3 3 0 0 1 0 5.5m39.702-226.9-15.7 7.2c-.6.3-1.2.8-1.5 1.4l-5.5 11.4-2.3 4.7c-1.1 2.3-4.3 2.3-5.4 0l-7.8-16.1c0-.1-.1-.1-.1-.2-.3-.5-.7-.9-1.2-1.1-.1-.1-.1-.1-.2-.1l-15.7-7.1c-2.3-1-2.3-4.2-.2-5.4.1 0 .1-.1.2-.1l15.7-7.1c.6-.3 1.1-.8 1.5-1.4l7.8-16.1c1.1-2.3 4.3-2.3 5.4 0l7.8 16.1c.3.6.8 1.1 1.5 1.4l15.7 7.1c2.4 1 2.4 4.4 0 5.4"/><path fill="#ffc738" d="m262.402 229.4-2.3 4.7c-1.1 2.3-4.3 2.3-5.4 0l-12.4-25.6-.3-.7-.7-.3c-.1 0-.1-.1-.2-.1l-24.9-11.3c-2.3-1-2.3-4.2-.2-5.4l4.9-2.2 26.9 12.2c.6.3 1.2.8 1.5 1.4zm52.5 106.7-2.3 4.7c-1.1 2.3-4.3 2.3-5.4 0l-7.8-16.1v-.1l-.4-.9-.8-.4c-.1 0-.1-.1-.2-.1l-15.7-7.1c-2.3-1-2.3-4.2-.2-5.4l4.9-2.2 17.7 8.1c.6.3 1.2.8 1.5 1.4zm39.6-226.8-2.3 4.7c-1.1 2.3-4.3 2.3-5.4 0l-7.8-16.1c0-.1-.1-.1-.1-.2l-.4-.8-.8-.3c-.1-.1-.1-.1-.2-.1l-15.7-7.1c-2.3-1-2.3-4.2-.2-5.4l4.9-2.2 17.7 8.1c.6.3 1.2.8 1.5 1.4z" opacity=".5" style="mix-blend-mode:multiply"/><path fill="#ebe6ef" d="M168.801 288.2q-3.3.6-6.9.6c-23.3 0-42.2-18.9-42.2-42.2 0-21.6 16.3-39.5 37.2-41.9-1.1 7.2-1.6 14.5-1.6 21.9 0 22 4.9 42.8 13.5 61.6m-42.299 39.3c0 9.3-7.1 17-16.1 17.9-7.1-5.3-13.8-11.1-19.8-17.5v-.4c0-9.9 8-18 18-18 9.8 0 17.9 8.1 17.9 18M62.9 166.2c4.2-3.9 9.9-6.3 16-6.3 13.1 0 23.8 10.7 23.8 23.8s-10.6 23.8-23.8 23.8c-12 0-21.9-8.9-23.5-20.5zm110.402 181.1a4.8 4.8 0 1 0 0-9.6 4.8 4.8 0 0 0 0 9.6m-37.701-182.5a4.8 4.8 0 1 0 0-9.6 4.8 4.8 0 0 0 0 9.6m19.301-40.4a4.8 4.8 0 1 0 0-9.6 4.8 4.8 0 0 0 0 9.6m40.999 245.3a8.2 8.2 0 0 0 8.2-8.2 8.2 8.2 0 0 0-8.2-8.2 8.2 8.2 0 0 0-8.2 8.2 8.2 8.2 0 0 0 8.2 8.2m.001-287.9c0 4.5-3.7 8.2-8.2 8.2s-8.2-3.7-8.2-8.2c0-.5 0-1.1.2-1.6 5.2-.6 10.4-1 15.8-1.1.2.8.4 1.7.4 2.7M87.1 254.7a8.2 8.2 0 1 0 0-16.4 8.2 8.2 0 1 0 0 16.4" opacity=".5" style="mix-blend-mode:multiply"/></svg>