<svg xmlns="http://www.w3.org/2000/svg" width="430" height="430" fill="none" viewBox="0 0 430 430"><path fill="#fad1e6" d="M55 100h165v275H75c-11.046 0-20-8.954-20-20z"/><path fill="#f28ba8" d="M215 240h160v115c0 11.046-8.954 20-20 20H215z"/><path fill="#c71f16" d="M215 105h160v135H215z"/><path fill="#3a3347" d="M375 105H55V75c0-11.046 8.954-20 20-20h280c11.046 0 20 8.954 20 20z"/><path fill="#2ca58d" fill-rule="evenodd" d="M142.798 80a7.5 7.5 0 0 1 7.5-7.5h.1a7.5 7.5 0 0 1 0 15h-.1a7.5 7.5 0 0 1-7.5-7.5" clip-rule="evenodd"/><path fill="#e83a30" fill-rule="evenodd" d="M82.5 80a7.5 7.5 0 0 1 7.5-7.5h.1a7.5 7.5 0 0 1 0 15H90a7.5 7.5 0 0 1-7.5-7.5" clip-rule="evenodd"/><path fill="#f2e2d9" fill-rule="evenodd" d="M112.6 80a7.5 7.5 0 0 1 7.5-7.5h.198a7.5 7.5 0 0 1 7.5 7.5 7.5 7.5 0 0 1-7.5 7.5h-.198a7.5 7.5 0 0 1-7.5-7.5" clip-rule="evenodd"/><path fill="#f2e2d9" d="M295.5 305c12.426 0 22.5-10.074 22.5-22.5S307.926 260 295.5 260 273 270.074 273 282.5s10.074 22.5 22.5 22.5"/><path fill="#3a3347" d="M250 345c0-16.569 13.431-30 30-30h30c16.569 0 30 13.431 30 30v7a3 3 0 0 1-3 3h-84a3 3 0 0 1-3-3z"/><path fill="#f2e2d9" d="M296.338 260.015C291.251 264.14 288 270.441 288 277.5c0 12.146 9.624 22.044 21.662 22.485A22.4 22.4 0 0 1 295.5 305c-12.426 0-22.5-10.074-22.5-22.5s10.074-22.5 22.5-22.5q.421 0 .838.015" opacity=".5" style="mix-blend-mode:multiply"/><path fill="#3a3347" d="M280 315c-16.569 0-30 13.431-30 30v7a3 3 0 0 0 3 3h17v-10c0-16.569 13.431-30 30-30z" opacity=".5" style="mix-blend-mode:multiply"/><path fill="#f2e2d9" d="M295.5 170c12.426 0 22.5-10.074 22.5-22.5S307.926 125 295.5 125 273 135.074 273 147.5s10.074 22.5 22.5 22.5"/><path fill="#fad1e6" d="M250 210c0-16.569 13.431-30 30-30h30c16.569 0 30 13.431 30 30v7a3 3 0 0 1-3 3h-84a3 3 0 0 1-3-3z"/><path fill="#f2e2d9" d="M296.338 125.015C291.251 129.14 288 135.441 288 142.5c0 12.146 9.624 22.044 21.662 22.485A22.4 22.4 0 0 1 295.5 170c-12.426 0-22.5-10.074-22.5-22.5s10.074-22.5 22.5-22.5q.421 0 .838.015" opacity=".5" style="mix-blend-mode:multiply"/><path fill="#fad1e6" d="M280 180c-16.569 0-30 13.431-30 30v7a3 3 0 0 0 3 3h17v-10c0-16.569 13.431-30 30-30z" opacity=".5" style="mix-blend-mode:multiply"/><circle cx="187.5" cy="132.5" r="7.5" fill="#e83a30"/><circle cx="347.5" cy="132.5" r="7.5" fill="#fad1e6"/><circle cx="347.5" cy="267.5" r="7.5" fill="#fad1e6"/><path fill="#f2e2d9" d="M135.5 235c15.188 0 27.5-12.312 27.5-27.5S150.688 180 135.5 180 108 192.312 108 207.5s12.312 27.5 27.5 27.5"/><path fill="#f2e2d9" d="M151.333 229.987q-.415.013-.833.013c-15.188 0-27.5-12.312-27.5-27.5 0-9.293 4.61-17.51 11.667-22.488C119.865 180.453 108 192.591 108 207.5c0 15.188 12.312 27.5 27.5 27.5a27.37 27.37 0 0 0 15.833-5.013" opacity=".5" style="mix-blend-mode:multiply"/><path fill="#c71f16" d="M80 285c0-19.33 15.67-35 35-35h40c19.33 0 35 15.67 35 35v7a3 3 0 0 1-3 3H83a3 3 0 0 1-3-3z"/><path fill="#c71f16" d="M115 250c-19.33 0-35 15.67-35 35v7a3 3 0 0 0 3 3h17v-10c0-19.33 15.67-35 35-35z" opacity=".5" style="mix-blend-mode:multiply"/></svg>