<svg xmlns="http://www.w3.org/2000/svg" width="430" height="430" fill="none" viewBox="0 0 430 430"><path fill="#f2e2d9" d="M135 30c-11.046 0-20 8.954-20 20v80c0 11.046 8.954 20 20 20h56.667l20.837 31.256c1.187 1.781 3.805 1.781 4.992 0L238.333 150H295c11.046 0 20-8.954 20-20V50c0-11.046-8.954-20-20-20z"/><path fill="#f2e2d9" d="M115 50c0-11.046 8.954-20 20-20h25c-11.046 0-20 8.954-20 20v80c0 11.046 8.954 20 20 20h-25c-11.046 0-20-8.954-20-20z" opacity=".5" style="mix-blend-mode:multiply"/><path stroke="#e8b730" stroke-linecap="round" stroke-linejoin="round" stroke-miterlimit="10" stroke-width="7" d="M240 90h-50m25 25V65"/><path fill="#f2e2d9" d="M115 305c16.569 0 30-13.431 30-30s-13.431-30-30-30c-16.568 0-30 13.431-30 30s13.432 30 30 30"/><path fill="#66a1ee" d="M50 365c0-24.853 20.147-45 45-45h40c24.853 0 45 20.147 45 45v12a3 3 0 0 1-3 3H53a3 3 0 0 1-3-3z"/><g opacity=".5" style="mix-blend-mode:multiply"><path fill="#f2e2d9" d="M115 305c16.569 0 30-13.431 30-30s-13.431-30-30-30c-16.568 0-30 13.431-30 30s13.432 30 30 30"/><path fill="#66a1ee" d="M50 365c0-24.853 20.147-45 45-45h40c24.853 0 45 20.147 45 45v12a3 3 0 0 1-3 3H53a3 3 0 0 1-3-3z"/></g><path fill="#f2e2d9" d="M315 305c16.569 0 30-13.431 30-30s-13.431-30-30-30-30 13.431-30 30 13.431 30 30 30"/><path fill="#66a1ee" d="M250 365c0-24.853 20.147-45 45-45h40c24.853 0 45 20.147 45 45v12a3 3 0 0 1-3 3H253a3 3 0 0 1-3-3z"/><g opacity=".5" style="mix-blend-mode:multiply"><path fill="#f2e2d9" d="M315 305c16.569 0 30-13.431 30-30s-13.431-30-30-30-30 13.431-30 30 13.431 30 30 30"/><path fill="#66a1ee" d="M250 365c0-24.853 20.147-45 45-45h40c24.853 0 45 20.147 45 45v12a3 3 0 0 1-3 3H253a3 3 0 0 1-3-3z"/></g><path fill="#f2e2d9" d="M215 305c24.853 0 45-20.147 45-45s-20.147-45-45-45-45 20.147-45 45 20.147 45 45 45"/><path fill="#66a1ee" d="M125 375c0-30.376 24.624-55 55-55h70c30.376 0 55 24.624 55 55v22a3 3 0 0 1-3 3H128a3 3 0 0 1-3-3z"/><path fill="#f2e2d9" d="M243.447 294.87q-1.707.13-3.447.13c-24.853 0-45-20.147-45-45 0-14.062 6.45-26.618 16.553-34.87C188.311 216.89 170 236.307 170 260c0 24.853 20.147 45 45 45a44.8 44.8 0 0 0 28.447-10.13" opacity=".3" style="mix-blend-mode:multiply"/><path fill="#66a1ee" d="M180 320c-30.376 0-55 24.624-55 55v22a3 3 0 0 0 3 3h27v-25c0-30.376 24.624-55 55-55z" opacity=".3" style="mix-blend-mode:multiply"/></svg>