<svg xmlns="http://www.w3.org/2000/svg" width="430" height="430" fill="none" viewBox="0 0 430 430"><path stroke="#3a3347" stroke-linecap="round" stroke-linejoin="round" stroke-miterlimit="10" stroke-width="7" d="m55 365 45-40 20.212-20.212M375 365l-45-40-14.587-14.587"/><path fill="#ebe6ef" d="M397 85H33a3 3 0 0 0-3 3v234a3 3 0 0 0 3 3h364a3 3 0 0 0 3-3V88a3 3 0 0 0-3-3"/><path fill="#ebe6ef" d="M55 85H35v240h20z" opacity=".5" style="mix-blend-mode:multiply"/><path fill="#f24c00" d="M190 128a3 3 0 0 1 3-3h164a3 3 0 0 1 3 3v114a3 3 0 0 1-3 3H193a3 3 0 0 1-3-3z"/><path fill="#f24c00" d="M190 128v114a3 3 0 0 0 3 3h82V125h-82a3 3 0 0 0-3 3" style="mix-blend-mode:multiply"/><path stroke="#3a3347" stroke-linecap="round" stroke-linejoin="round" stroke-miterlimit="10" stroke-width="7" d="M360 285H190"/><path fill="#ffc738" d="M70 128a3 3 0 0 1 3-3h74a3 3 0 0 1 3 3v54a3 3 0 0 1-3 3H73a3 3 0 0 1-3-3z"/><path fill="#ffc738" d="M70 128v54a3 3 0 0 0 3 3h37v-60H73a3 3 0 0 0-3 3" opacity=".5" style="mix-blend-mode:multiply"/><path fill="#f28ba8" d="M70 228a3 3 0 0 1 3-3h74a3 3 0 0 1 3 3v54a3 3 0 0 1-3 3H73a3 3 0 0 1-3-3z"/><path fill="#f28ba8" d="M70 228v54a3 3 0 0 0 3 3h37v-60H73a3 3 0 0 0-3 3" opacity=".5" style="mix-blend-mode:multiply"/><path fill="#ebe6ef" d="M289.963 182.428c1.942 1.165 1.942 3.979 0 5.144l-28.67 17.202c-1.999 1.2-4.543-.241-4.543-2.573v-34.402c0-2.332 2.544-3.773 4.543-2.573z"/><path fill="#3a3347" fill-rule="evenodd" d="M390 95H40v220h350zm7-10a3 3 0 0 1 3 3v234a3 3 0 0 1-3 3H33a3 3 0 0 1-3-3V88a3 3 0 0 1 3-3z" clip-rule="evenodd"/></svg>