<svg xmlns="http://www.w3.org/2000/svg" width="430" height="430" fill="none" viewBox="0 0 430 430"><path fill="#c71f16" d="m215 326 120.427 74.183c1.998 1.231 4.573-.207 4.573-2.555V84.7H90v312.928c0 2.348 2.575 3.786 4.573 2.555z"/><path fill="#c71f16" d="M94.573 400.183 215 326V83.747c-40.073.106-121.176.254-125 0v313.881c0 2.348 2.575 3.786 4.573 2.555" opacity=".5" style="mix-blend-mode:multiply"/><path fill="#f2e2d9" d="M90 90h250V60c0-16.568-13.431-30-30-30H120c-16.569 0-30 13.432-30 30z"/><path fill="#f2e2d9" d="M120 30c-16.569 0-30 13.432-30 30v30h125V30z" opacity=".5" style="mix-blend-mode:multiply"/></svg>