<svg xmlns="http://www.w3.org/2000/svg" width="430" height="430" fill="none" viewBox="0 0 430 430"><path fill="#f28ba8" d="M359.82 85.1A104 104 0 0 0 215 82.86 104.031 104.031 0 1 0 70.17 232.24l142.4 142.4a3.4 3.4 0 0 0 2.43 1 3.43 3.43 0 0 0 2.43-1l142.39-142.4a104 104 0 0 0 30.492-73.57A104 104 0 0 0 359.82 85.1"/><path fill="#f28ba8" d="M215.23 82.64v293H215a3.4 3.4 0 0 1-2.43-1l-142.4-142.4A104.032 104.032 0 0 1 215 82.86z" opacity=".5" style="mix-blend-mode:multiply"/><path stroke="#ebe6ef" stroke-linecap="round" stroke-linejoin="round" stroke-width="7" d="M144.45 81.76a77.63 77.63 0 0 0-77.63 77.62"/></svg>