<svg xmlns="http://www.w3.org/2000/svg" width="430" height="430" fill="none" viewBox="0 0 430 430"><path fill="#ebe6ef" d="M122.5 340.849c40.319 0 74.921 12.55 89.764 30.448 1.384 1.669 4.088 1.669 5.472 0 14.843-17.898 49.445-30.448 89.764-30.448 37.234 0 69.593 10.703 86.017 26.438 2.155 2.065 6.483.594 6.483-2.391V104h-.018c-.986-27.153-42.014-49-92.482-49s-91.496 21.847-92.482 49h-.036c-.986-27.153-42.014-49-92.482-49s-91.496 21.847-92.482 49H30v260.896c0 2.985 4.328 4.456 6.483 2.391 16.424-15.735 48.783-26.438 86.017-26.438"/><path stroke="#3a3347" stroke-linecap="round" stroke-linejoin="round" stroke-width="7" d="M185 183.408C168.539 175.082 146.595 170 122.5 170s-46.039 5.082-62.5 13.408m125-49.269C168.539 125.98 146.595 121 122.5 121s-46.039 4.98-62.5 13.14m125 98.268C168.539 224.082 146.595 219 122.5 219s-46.039 5.082-62.5 13.408m310 49C353.539 273.082 331.595 268 307.5 268s-46.039 5.082-62.5 13.408m125-49.269C353.539 223.98 331.595 219 307.5 219s-46.039 4.98-62.5 13.14"/><path fill="#ebe6ef" d="M205.799 364.85c-17.118-14.392-48.02-24.001-83.299-24.001-26.197 0-49.982 5.299-67.5 13.92q-.567.279-1.124.562c-6.894 3.503-12.774 7.53-17.393 11.956l-.009.008c-2.158 2.052-6.474.582-6.474-2.399V104h.018c.37-10.182 6.37-19.618 16.388-27.436a73 73 0 0 1 7.739-5.251q.425-.251.855-.5v258.956c17.518-8.621 41.303-13.92 67.5-13.92 37.309 0 69.723 10.746 86.115 26.532V86.709q.148.203.292.407c3.728 5.259 5.859 10.944 6.075 16.884h.036l.003-.08c.222-5.652 2.178-11.074 5.594-16.115v255.333c16.133-16.198 48.983-27.289 86.885-27.289 43.046 0 79.576 14.305 92.5 34.151v14.896c0 2.985-4.328 4.456-6.483 2.391-16.424-15.735-48.783-26.438-86.017-26.438-37.902 0-70.752 11.091-86.885 27.289l-.269.272a47 47 0 0 0-2.61 2.887c-1.384 1.669-4.088 1.669-5.472 0a47 47 0 0 0-3.184-3.462 55 55 0 0 0-3.281-2.985" opacity=".5" style="mix-blend-mode:multiply"/></svg>