<svg xmlns="http://www.w3.org/2000/svg" width="430" height="430" fill="none" viewBox="0 0 430 430"><path fill="#ebe6ef" d="M215 54.89H84.57c-1.66 0-3 1.34-3 3v314.23c0 1.66 1.34 3 3 3H305.4c1.66 0 3-1.34 3-3V148.29z"/><path fill="#ebe6ef" d="M218 148.28h90.4L215 54.88v90.4c0 1.66 1.34 3 3 3" style="mix-blend-mode:multiply"/><path fill="#3a3347" d="M332.671 149.09 193.261 288.5l-4.15 29.06c-.28 1.98 1.41 3.68 3.39 3.39l29.06-4.15 139.4-139.42a3 3 0 0 0 0-4.24l-24.05-24.05a3 3 0 0 0-4.24 0"/><path fill="#ffc738" d="m362.396 136.837 10.825 10.826a5.69 5.69 0 0 1 0 8.047l-14.849 14.849-18.873-18.872 14.85-14.85a5.694 5.694 0 0 1 8.047 0"/><path fill="#3a3347" d="m348.281 160.47-141.52 141.52-2.47 17.28-11.79 1.68c-1.98.28-3.68-1.41-3.39-3.39l4.15-29.07 139.4-139.4a3 3 0 0 1 4.24 0l2.6 2.59z" opacity=".5" style="mix-blend-mode:multiply"/><path fill="#ffc738" d="M370.89 145.34a5.685 5.685 0 0 0-8.04 0L348 160.18l-8.5-8.5 14.85-14.84a5.685 5.685 0 0 1 8.04 0z" opacity=".5" style="mix-blend-mode:multiply"/></svg>