<svg xmlns="http://www.w3.org/2000/svg" width="430" height="430" fill="none" viewBox="0 0 430 430"><path fill="#ebe6ef" d="M215 379.06c90.608 0 164.06-73.452 164.06-164.06S305.608 50.94 215 50.94 50.94 124.392 50.94 215 124.392 379.06 215 379.06"/><path fill="#ffc738" d="M215.42 50.94a2 2 0 0 0-2 2v57.3a2.002 2.002 0 0 0 2.38 2 71.4 71.4 0 0 1 12.26-1.47 22.88 22.88 0 0 1 21.571 14.009 22.88 22.88 0 0 1 0 17.732 22.9 22.9 0 0 1-12.669 12.407 22.9 22.9 0 0 1-8.902 1.602 71 71 0 0 1-12.27-1.52 1.994 1.994 0 0 0-2.38 2v57.29a2 2 0 0 0 2 2h54.78a68 68 0 0 0-1.11 10.64 26.87 26.87 0 0 0 16.469 25.302 26.87 26.87 0 0 0 20.812 0 26.87 26.87 0 0 0 14.574-14.857 26.9 26.9 0 0 0 1.895-10.445 68 68 0 0 0-1.11-10.64h54.9a2 2 0 0 0 2-2c0-90.02-73.21-163.29-163.2-163.35"/><path fill="#4bb3fd" d="M202 273.52c4.105.14 8.19.635 12.21 1.48a1.994 1.994 0 0 0 2.38-2v-57.26a2 2 0 0 0-2-2h-54.78a68 68 0 0 0 1.11-10.64 26.87 26.87 0 0 0-16.469-25.302 26.87 26.87 0 0 0-20.812 0 26.88 26.88 0 0 0-14.574 14.857 26.9 26.9 0 0 0-1.895 10.445c.089 3.57.46 7.128 1.11 10.64h-54.9a2 2 0 0 0-2 2c0 90 73.21 163.26 163.2 163.32a2 2 0 0 0 2-2v-57.3a2 2 0 0 0-.713-1.568 2 2 0 0 0-1.667-.432 71.5 71.5 0 0 1-12.2 1.51 22.88 22.88 0 0 1-21.571-14.009 22.88 22.88 0 0 1 0-17.732 22.9 22.9 0 0 1 12.669-12.407A22.9 22.9 0 0 1 202 273.52"/><path fill="#ebe6ef" d="M78.78 199.75q0 7.16.61 14.15H51a164.09 164.09 0 0 1 99.6-149.82 163.85 163.85 0 0 0-71.82 135.67" opacity=".5" style="mix-blend-mode:multiply"/><path fill="#4bb3fd" d="M216.59 361.72v17.33H215A164.06 164.06 0 0 1 50.94 215v-1.1h28.45a164.12 164.12 0 0 0 137.2 147.82" opacity=".5" style="mix-blend-mode:multiply"/><path fill="#ebe6ef" d="M307.25 350.68a163.37 163.37 0 0 1-90.66 28.37v-17.33a164.93 164.93 0 0 0 90.66-11z" opacity=".5" style="mix-blend-mode:multiply"/></svg>